<?xml version="1.0" encoding="UTF-8"?>
<!-- Generator: Adobe Illustrator 13.0.2, SVG Export Plug-In . SVG Version: 6.00 Build 14948)  -->
<!DOCTYPE svg PUBLIC "-//W3C//DTD SVG 1.1//EN" "http://www.w3.org/Graphics/SVG/1.1/DTD/svg11.dtd">
<svg version="1.1" id="Layer_1" xmlns="http://www.w3.org/2000/svg" xmlns:xlink="http://www.w3.org/1999/xlink" x="0px" y="0px" width="559.585px" height="152.031px" viewBox="-28.579 0.043 559.585 152.031" enable-background="new -28.579 0.043 559.585 152.031" xml:space="preserve">
<g>
	<path fill="#7A7D81" d="M133.156,123.088h9.079l10.697-27.867h40.42l10.821,27.867h9.077l-34.823-89.644h-9.457L133.156,123.088   L133.156,123.088z M173.323,41.986l17.165,45.949h-34.947L173.323,41.986L173.323,41.986z"/>
	<polygon fill="#7A7D81" points="216.297,123.088 224.131,123.088 224.131,33.444 216.297,33.444  "/>
	<path fill="#7A7D81" d="M257.682,58.307h-12.681v-5.649c0-1.759,0.038-3.391,0.123-4.895c0.082-1.512,0.392-2.827,0.931-3.959   c0.538-1.128,1.388-2.028,2.547-2.7c1.16-0.668,2.82-1.004,4.979-1.004c0.911,0,1.824,0.064,2.737,0.187   c0.907,0.126,1.903,0.272,2.979,0.441V33.95c-1.244-0.168-2.358-0.297-3.353-0.374c-0.999-0.084-2.075-0.132-3.235-0.132   c-3.152,0-5.743,0.464-7.776,1.381c-2.031,0.92-3.63,2.218-4.788,3.89c-1.161,1.679-1.943,3.688-2.364,6.026   c-0.412,2.346-0.622,4.9-0.622,7.66v5.904h-10.943v6.65h10.943v58.132h7.841V64.956h12.681V58.307L257.682,58.307z"/>
	<path fill="#7A7D81" d="M260.129,123.088h7.836V89.09c0-3.293,0.578-6.389,1.743-9.273c1.158-2.885,2.797-5.355,4.908-7.42   c2.12-2.059,4.628-3.648,7.526-4.762c2.9-1.117,6.136-1.584,9.698-1.424v-7.904c-5.801-0.252-10.797,0.895-14.985,3.451   c-4.184,2.558-7.271,6.465-9.264,11.741h-0.246V58.307h-7.217V123.088L260.129,123.088z"/>
	<path fill="#7A7D81" d="M344.963,92.833c0.168-4.282-0.247-8.513-1.245-12.678c-0.988-4.171-2.627-7.859-4.911-11.078   c-2.28-3.21-5.239-5.812-8.892-7.798c-3.646-1.983-8.041-2.973-13.182-2.973s-9.536,0.93-13.184,2.787   c-3.648,1.858-6.636,4.31-8.956,7.359c-2.315,3.041-4.04,6.503-5.162,10.379c-1.116,3.883-1.677,7.833-1.677,11.867   c0,4.349,0.561,8.48,1.677,12.396c1.122,3.914,2.847,7.357,5.162,10.326c2.32,2.967,5.307,5.315,8.956,7.057   c3.647,1.746,8.043,2.609,13.184,2.609c8.124,0,14.403-2.028,18.841-6.088c4.438-4.059,7.484-9.773,9.143-17.141h-7.836   c-1.243,4.943-3.481,8.938-6.715,11.994c-3.235,3.051-7.712,4.582-13.433,4.582c-3.729,0-6.941-0.734-9.639-2.203   c-2.694-1.474-4.873-3.338-6.531-5.585c-1.655-2.246-2.901-4.772-3.724-7.562c-0.836-2.791-1.248-5.541-1.248-8.253H344.963   L344.963,92.833z M295.588,86.174c0.331-2.691,1.012-5.32,2.053-7.89c1.039-2.583,2.421-4.854,4.163-6.81   c1.743-1.958,3.856-3.538,6.351-4.722c2.481-1.194,5.339-1.796,8.575-1.796c3.149,0,5.968,0.603,8.458,1.796   c2.489,1.186,4.603,2.765,6.343,4.722c1.738,1.956,3.085,4.214,4.039,6.74c0.955,2.544,1.473,5.195,1.558,7.958L295.588,86.174   L295.588,86.174z"/>
	<path fill="#7A7D81" d="M396.906,77.264c-0.166-3.513-0.872-6.569-2.113-9.165c-1.245-2.592-2.923-4.769-5.032-6.527   c-2.119-1.76-4.566-3.057-7.343-3.892c-2.779-0.839-5.788-1.259-9.018-1.259c-2.817,0-5.656,0.336-8.521,1.003   c-2.858,0.673-5.448,1.722-7.767,3.145c-2.331,1.419-4.217,3.307-5.664,5.643c-1.449,2.348-2.18,5.157-2.18,8.418   c0,2.764,0.454,5.085,1.368,6.971c0.912,1.881,2.18,3.471,3.792,4.768c1.617,1.301,3.506,2.387,5.664,3.268   c2.154,0.876,4.516,1.649,7.087,2.32l10.077,2.26c1.738,0.422,3.461,0.916,5.161,1.506c1.701,0.586,3.213,1.316,4.542,2.198   c1.327,0.879,2.381,1.986,3.17,3.326c0.788,1.337,1.184,2.928,1.184,4.774c0,2.256-0.564,4.164-1.678,5.711   c-1.125,1.552-2.557,2.824-4.291,3.832c-1.745,0.998-3.654,1.711-5.726,2.125c-2.069,0.426-4.021,0.633-5.847,0.633   c-5.225,0-9.594-1.359-13.12-4.08c-3.524-2.722-5.453-6.761-5.79-12.115h-7.836c0.667,7.955,3.344,13.75,8.026,17.389   c4.688,3.641,10.803,5.458,18.347,5.458c2.987,0,6.01-0.353,9.079-1.062c3.066-0.715,5.826-1.84,8.27-3.395   c2.445-1.549,4.455-3.556,6.035-6.031c1.571-2.467,2.361-5.455,2.361-8.971c0-2.853-0.538-5.318-1.616-7.415   c-1.077-2.086-2.466-3.843-4.168-5.267c-1.699-1.422-3.646-2.576-5.846-3.455c-2.193-0.876-4.419-1.488-6.652-1.82l-10.449-2.388   c-1.326-0.332-2.774-0.769-4.353-1.315c-1.575-0.539-3.029-1.235-4.352-2.076c-1.327-0.828-2.429-1.854-3.302-3.07   c-0.869-1.211-1.295-2.699-1.295-4.457c0-2.086,0.447-3.854,1.359-5.272c0.907-1.426,2.117-2.576,3.613-3.455   c1.485-0.876,3.125-1.499,4.907-1.882c1.784-0.38,3.546-0.561,5.286-0.561c2.237,0,4.35,0.264,6.346,0.815   c1.981,0.541,3.751,1.396,5.281,2.573c1.533,1.165,2.759,2.653,3.671,4.457c0.914,1.796,1.404,3.909,1.492,6.339H396.906   L396.906,77.264z"/>
	<path fill="#7A7D81" d="M456.035,80.526c-0.912-7.449-3.753-13.017-8.521-16.696c-4.774-3.684-10.596-5.525-17.475-5.525   c-4.897,0-9.226,0.866-12.999,2.608c-3.773,1.74-6.95,4.076-9.519,6.999c-2.568,2.932-4.513,6.372-5.842,10.326   c-1.326,3.955-1.991,8.107-1.991,12.458c0,4.429,0.665,8.6,1.991,12.517c1.329,3.916,3.273,7.336,5.842,10.266   s5.743,5.256,9.519,6.998c3.773,1.746,8.103,2.609,12.999,2.609c7.211,0,13.157-2.22,17.843-6.653   c4.688-4.435,7.569-10.585,8.646-18.454h-7.836c-0.245,2.68-0.915,5.147-1.991,7.404c-1.079,2.262-2.447,4.206-4.099,5.842   c-1.659,1.631-3.573,2.912-5.726,3.828c-2.15,0.923-4.438,1.381-6.839,1.381c-3.735,0-7.011-0.74-9.832-2.217   c-2.821-1.481-5.157-3.434-7.023-5.853c-1.863-2.417-3.273-5.171-4.229-8.245c-0.952-3.085-1.434-6.227-1.434-9.423   c0-3.2,0.481-6.335,1.434-9.419c0.958-3.074,2.366-5.828,4.229-8.244c1.866-2.419,4.202-4.369,7.023-5.852   c2.82-1.485,6.097-2.225,9.832-2.225c5.137,0,9.182,1.382,12.122,4.142c2.951,2.768,4.955,6.576,6.035,11.431h7.84V80.526z"/>
	<path fill="#7A7D81" d="M489.688,58.307c-4.89,0-9.222,0.866-12.997,2.609c-3.771,1.74-6.945,4.076-9.509,6.999   c-2.577,2.931-4.521,6.371-5.849,10.326c-1.325,3.953-1.991,8.107-1.991,12.456c0,4.431,0.666,8.6,1.991,12.519   c1.328,3.916,3.273,7.335,5.849,10.264c2.563,2.931,5.738,5.258,9.509,7c3.775,1.746,8.107,2.609,12.997,2.609   c4.896,0,9.229-0.865,12.999-2.609c3.774-1.742,6.945-4.069,9.518-7c2.566-2.929,4.518-6.348,5.843-10.264   c1.325-3.919,1.991-8.088,1.991-12.519c0-4.351-0.666-8.503-1.991-12.456c-1.325-3.956-3.276-7.395-5.843-10.326   c-2.573-2.923-5.743-5.259-9.518-6.999C498.916,59.171,494.584,58.307,489.688,58.307L489.688,58.307z M489.688,64.956   c3.731,0,7.011,0.74,9.826,2.225c2.819,1.483,5.161,3.433,7.03,5.852c1.863,2.417,3.276,5.17,4.229,8.244   c0.949,3.084,1.434,6.219,1.434,9.419c0,3.196-0.484,6.338-1.434,9.423c-0.954,3.074-2.365,5.828-4.229,8.245   c-1.869,2.419-4.211,4.371-7.03,5.853c-2.813,1.475-6.095,2.217-9.826,2.217c-3.73,0-7.007-0.74-9.821-2.217   c-2.821-1.481-5.162-3.434-7.036-5.853c-1.856-2.417-3.271-5.171-4.222-8.245c-0.953-3.085-1.427-6.227-1.427-9.423   c0-3.2,0.474-6.335,1.427-9.419c0.951-3.074,2.366-5.828,4.222-8.244c1.874-2.419,4.215-4.369,7.036-5.852   C482.681,65.696,485.957,64.956,489.688,64.956L489.688,64.956z"/>
	<g>
		<path fill="#7A7D81" d="M531.006,62.635c0,3.515-2.665,6.25-6.128,6.25s-6.131-2.735-6.131-6.25c0-3.506,2.668-6.25,6.131-6.25    S531.006,59.129,531.006,62.635z M519.706,62.635c0,2.991,2.201,5.363,5.172,5.363c2.968,0,5.178-2.371,5.178-5.363    c0-2.986-2.21-5.356-5.178-5.356C521.907,57.279,519.706,59.649,519.706,62.635z M523.531,66.25h-0.878v-7.226h2.714    c1.601,0,2.312,0.704,2.312,1.999c0,1.283-0.824,1.852-1.776,2.017l2.104,3.211h-1.017l-1.999-3.211h-1.46V66.25z M524.678,62.288    c1.076,0,2.128-0.035,2.128-1.264c0-1.007-0.827-1.244-1.68-1.244h-1.596v2.508H524.678z"/>
	</g>
	<g>
		<g>
			<path fill="#FFFFFF" d="M45.966,76.098L24.941,54.635l-0.763-0.782c-12.051-12.33-31.69-12.33-43.683-0.048     c-12.09,12.273-12.09,32.232,0,44.519c11.993,12.32,31.579,12.32,43.625,0L45.966,76.098z"/>
		</g>
		<path fill="#FFFFFF" d="M45.966,76.069v30.316l0.043,1.114c0,17.382-13.845,31.557-30.912,31.557    c-17.068,0-30.91-14.086-30.91-31.469c0-17.401,13.894-31.519,30.91-31.519H45.966z"/>
		<path fill="#FFFFFF" d="M45.966,76.069v30.316l0.043,1.114c0,17.382-13.845,31.557-30.912,31.557    c-17.068,0-30.91-14.086-30.91-31.469c0-17.401,13.894-31.519,30.91-31.519H45.966z"/>
		<path fill="#FFFFFF" d="M45.966,76.069v30.316l0.043,1.114c0,17.382-13.845,31.557-30.912,31.557    c-17.068,0-30.91-14.086-30.91-31.469c0-1.938,0.204-3.814,0.521-5.62c12.045,8.55,28.703,7.339,39.412-3.635l21.846-22.235    V76.069z"/>
		<path fill="#8BC037" d="M15.098,80.042c-14.871,0-26.96,12.331-26.96,27.546c0,15.158,12.089,27.461,26.96,27.461    c14.921,0,26.967-12.303,26.967-27.461v-1.193V80.042H15.157H15.098z"/>
		<path fill="#FFFFFF" d="M45.966,76.069l21.009,21.425l0.865,0.781c12.002,12.314,12.058,32.304,0,44.582    c-12.091,12.289-31.624,12.289-43.719,0c-12.047-12.278-12.047-32.246,0-44.555L45.966,76.069z"/>
		<path fill="#8BC037" d="M26.939,101.13c-10.553,10.736-10.553,28.183,0,38.888c10.504,10.741,27.586,10.741,38.139,0    c10.507-10.707,10.507-28.151,0-38.888l-0.878-0.806L45.966,81.706l-19.026,19.388V101.13z"/>
		<path fill="#FFFFFF" d="M45.966,76.069h29.77l1.083-0.054c17.072,0,30.916,14.111,30.916,31.514    c0,17.412-13.796,31.466-30.864,31.466c-17.068,0-30.903-14.079-30.903-31.466V76.069z"/>
		<path fill="#8BC037" d="M49.906,107.529c0,15.194,12.041,27.5,26.964,27.5c14.856,0,26.901-12.306,26.901-27.5    c0-15.213-12.045-27.487-26.901-27.487h-1.13H49.906v27.414V107.529z"/>
		<path fill="#FFFFFF" d="M45.966,76.069l21.008-21.456l0.814-0.808c12.052-12.282,31.627-12.333,43.676-0.056    c12.052,12.315,12.052,32.244,0,44.553c-12.049,12.309-31.624,12.309-43.676,0L45.966,76.069z"/>
		<path fill="#8BC037" d="M70.606,95.456c10.461,10.77,27.532,10.77,38.089,0c10.562-10.719,10.562-28.115,0-38.862    c-10.557-10.735-27.628-10.735-38.089,0l-0.865,0.84L51.54,76.069l18.971,19.364L70.606,95.456z"/>
		<path fill="#FFFFFF" d="M45.966,76.069V45.729v-1.13c0-17.368,13.781-31.511,30.903-31.511c17.021,0,30.809,14.051,30.809,31.459    c0,17.406-13.786,31.52-30.809,31.52H45.966V76.069z"/>
		<g>
			<path fill="#F99F38" d="M76.869,72.068c14.856,0,26.902-12.31,26.902-27.517c0-15.149-12.045-27.488-26.902-27.488     c-14.922,0-27.02,12.339-27.02,27.488l0.056,1.178v26.338h26.808H76.869z"/>
			<path fill="#FFFFFF" d="M45.966,76.069L24.941,54.614l-0.82-0.76c-12.047-12.33-12.047-32.303,0-44.582     c11.995-12.304,31.582-12.304,43.669,0c12.052,12.281,12.052,32.252,0,44.534L45.966,76.069z"/>
		</g>
		<path fill="#0081C6" d="M65.022,51.243c10.503-10.74,10.503-28.171,0-38.895c-10.548-10.73-27.579-10.73-38.131,0    c-10.561,10.725-10.561,28.155,0,38.895l0.769,0.824l18.307,18.586l19-19.362L65.022,51.243z"/>
		<path fill="#FFFFFF" d="M45.966,76.325H16.222l-1.124,0.031c-17.016,0-30.91-14.117-30.91-31.512    c0-17.382,13.842-31.495,30.858-31.495c17.07,0,30.92,14.113,30.92,31.506V76.325z"/>
		<path fill="#0081C6" d="M42.06,44.855c0-15.194-12.045-27.489-27.014-27.489c-14.862,0-26.955,12.295-26.955,27.468    c0,15.182,12.093,27.521,26.955,27.521l1.176-0.031H42.06v-27.41V44.855z"/>
		<path fill="#FFFFFF" d="M45.966,76.325l-74.545,0.031c0-8.052,2.97-16.122,9.074-22.293c11.992-12.281,31.579-12.281,43.625,0    L45.966,76.325z"/>
		<path fill="#0081C6" d="M21.352,56.888l19.07,19.437H15.098c-13.686,0-25.325,9.097-29.367,21.737    c-0.824-0.729-1.698-1.469-2.46-2.299c-10.562-10.738-10.562-28.109,0-38.875C-6.278,46.164,10.848,46.164,21.352,56.888"/>
		<path fill="#005EA5" d="M21.4,56.912l15.091,15.396l-21.465,0.066c-12.354,0-22.772-8.463-25.933-20.019    c10.247-5.856,23.668-4.449,32.257,4.534L21.4,56.912z"/>
		<path fill="#005EA5" d="M42.07,44.911l-0.023,21.777l-15.15-15.449c-8.725-8.915-10.261-22.401-4.518-32.854    c11.327,3.235,19.689,13.851,19.689,26.466v0.059H42.07z"/>
		<path fill="#005EA5" d="M49.789,66.736V44.89c0-12.588,8.349-23.221,19.69-26.483c5.736,10.481,4.656,23.619-4.346,32.703    L49.789,66.736z"/>
		<path fill="#FFDF4F" d="M55.419,72.08l15.136-15.474c8.72-8.908,21.96-10.413,32.217-4.565    C99.534,63.59,89.655,71.888,77.496,72.09L55.419,72.08z"/>
		<path fill="#48A64A" d="M55.418,80.025h21.424c12.354,0,22.763,8.414,25.945,19.989c-10.31,5.877-23.544,4.338-32.302-4.566    L55.418,80.025z"/>
		<path fill="#48A64A" d="M49.904,107.384v-21.74l15.174,15.425c8.725,8.932,10.201,22.481,4.466,32.934    c-11.33-3.25-19.64-13.908-19.64-26.513V107.384z"/>
		<path fill="#48A64A" d="M26.975,101.078l15.081-15.382l0.034,21.854c0,12.597-8.297,23.184-19.628,26.449    c-5.739-10.473-4.202-23.99,4.513-32.879V101.078z"/>
		<path fill="#48A64A" d="M15.251,80.032h21.326L21.454,95.479c-8.706,8.896-22.051,10.433-32.292,4.582    c3.221-11.584,13.64-20.028,25.995-20.028H15.251z"/>
	</g>
</g>
</svg>